<?xml version="1.0" standalone="no"?>
<!DOCTYPE svg PUBLIC "-//W3C//DTD SVG 20010904//EN"
 "http://www.w3.org/TR/2001/REC-SVG-20010904/DTD/svg10.dtd">
<svg version="1.0" xmlns="http://www.w3.org/2000/svg"
 width="446.000000pt" height="379.000000pt" viewBox="0 0 446.000000 379.000000"
 preserveAspectRatio="xMidYMid meet">

<g transform="translate(0.000000,379.000000) scale(0.100000,-0.100000)"
fill="#0078ff" stroke="none">
<path d="M1310 3728 c-58 -28 -130 -61 -160 -75 -56 -26 -145 -67 -260 -121
-408 -190 -529 -246 -673 -313 -93 -43 -177 -85 -188 -95 -25 -22 -26 -86 -2
-110 10 -9 83 -48 163 -86 79 -38 148 -74 152 -81 4 -7 8 -96 8 -199 l0 -187
-31 -36 c-26 -30 -30 -40 -25 -68 12 -55 10 -68 -27 -225 -20 -84 -37 -163
-37 -175 0 -44 14 -47 192 -47 238 0 240 2 158 227 -27 76 -50 141 -50 145 0
4 11 18 25 32 33 33 32 68 -5 109 l-30 35 0 156 c0 86 3 156 8 156 4 0 39 -17
77 -38 l70 -37 5 -260 c6 -301 2 -289 101 -349 164 -101 593 -303 660 -312 35
-5 60 0 121 25 83 33 330 142 418 185 l55 27 88 -42 87 -43 0 -266 c0 -246 1
-267 20 -297 27 -44 77 -74 355 -213 248 -123 412 -190 464 -190 68 0 439 171
457 211 19 41 56 198 49 209 -11 17 -31 11 -116 -37 -130 -73 -360 -173 -397
-173 -19 0 -80 18 -135 40 -127 51 -457 214 -486 241 -20 19 -21 29 -21 194
l0 173 243 -118 c309 -150 380 -180 428 -180 31 0 104 33 345 156 168 86 308
153 312 149 4 -3 8 -72 10 -152 7 -322 -91 -653 -265 -895 -314 -435 -878
-656 -1402 -548 -128 26 -199 50 -321 106 -280 131 -510 355 -648 629 -69 140
-104 272 -116 450 l-6 79 128 -127 c119 -117 132 -127 166 -127 55 0 96 43 96
101 0 43 -2 45 -216 260 -123 124 -226 219 -239 222 -13 2 -36 -2 -52 -9 -27
-12 -369 -343 -426 -412 -58 -71 -19 -162 69 -162 22 0 54 27 155 126 l128
127 5 -34 c3 -19 7 -79 10 -134 23 -445 362 -920 821 -1149 416 -207 863 -231
1284 -67 477 185 838 591 965 1086 33 132 46 270 46 502 l0 230 138 66 c75 36
190 91 254 121 102 47 120 59 134 90 14 29 15 39 4 65 -10 24 -31 39 -107 76
-52 25 -96 45 -98 45 -2 0 -93 43 -202 96 -109 53 -234 113 -278 134 -92 44
-286 136 -497 239 -111 53 -158 71 -190 71 -33 0 -95 -26 -292 -121 -138 -66
-261 -127 -273 -135 -21 -13 -23 -22 -23 -109 0 -52 4 -97 10 -100 11 -7 7 -9
345 154 126 61 235 111 241 111 6 0 178 -79 380 -176 203 -97 433 -207 511
-244 l142 -67 -206 -100 -206 -101 -305 149 c-167 82 -316 149 -329 149 -31 0
-93 -60 -93 -89 0 -62 21 -77 271 -201 l239 -119 -27 -15 c-16 -9 -111 -57
-212 -106 l-184 -91 -36 14 c-96 39 -604 285 -708 343 l-65 36 35 37 c20 20
41 49 47 65 7 18 10 122 10 284 l-1 255 240 113 c275 129 285 135 301 174 10
25 9 35 -6 65 -17 33 -38 45 -249 144 -126 60 -288 136 -360 171 -71 34 -166
79 -210 100 -81 38 -156 73 -409 194 -178 85 -198 86 -346 14z m525 -311 c582
-273 725 -341 725 -347 -1 -3 -78 -41 -173 -84 -95 -43 -344 -164 -553 -268
l-382 -189 -238 116 c-168 82 -235 119 -224 124 8 5 125 60 260 122 135 62
255 124 268 136 24 24 29 67 11 107 -11 23 -62 56 -88 56 -6 0 -111 -47 -233
-104 -123 -57 -273 -126 -334 -155 -61 -28 -116 -51 -123 -51 -16 0 -401 182
-401 190 0 3 163 82 362 175 200 94 444 209 543 257 119 58 188 86 205 83 14
-2 183 -77 375 -168z m323 -944 l-3 -188 -143 -72 c-79 -39 -230 -109 -335
-153 -161 -69 -198 -81 -232 -77 -47 5 -301 120 -465 210 l-115 63 -3 172 c-1
95 0 172 2 172 3 0 85 -39 183 -86 340 -165 384 -184 417 -184 24 0 130 49
358 164 177 90 326 164 331 165 4 0 6 -83 5 -186z"/>
</g>
</svg>
